<?xml version="1.0" encoding="utf-8" ?>
<svg xmlns="http://www.w3.org/2000/svg" xmlns:xlink="http://www.w3.org/1999/xlink" width="100" height="100" stroke="currentColor">
	<path transform="scale(0.195312 0.195312)" d="M108.579 170.494C96.5813 152.893 89.5144 130.944 89.4774 109.593C89.4446 90.6476 95.376 64.9856 118.732 65.0361C120.358 64.009 124.006 64.5342 125.824 64.7321C141.531 66.4417 165.797 80.9401 176.072 93.7718C185.152 86.2041 207.082 78.4224 218.848 75.698C258.806 66.4459 300.666 72.0043 335.607 93.7718C349.679 77.2016 387.99 54.4604 409.732 69.5422C415.974 73.8728 420.131 86.3088 421.389 93.4674C424.992 113.969 417.366 152.723 404.86 170.494C408.297 175.667 411.07 181.66 413.665 187.299C434.983 233.631 434.355 290.896 399.583 330.718C390.559 341.053 377.907 351.715 367.256 360.485C362.936 363.772 358.92 367.476 354.642 370.827C342.701 380.18 346.098 375.635 338.265 388.804C299.558 453.88 209.522 455.297 173.563 387.068C168.789 378.011 170.732 379.293 162.042 373.928C150.836 367.011 132.168 350.155 122.256 340.878C78.0304 299.489 74.4452 238.668 99.2278 186.046C101.771 180.645 104.468 174.877 108.579 170.494ZM118.732 84.5519C116.174 85.1916 115.017 86.0803 113.647 88.3959C103.613 105.359 112.879 139.217 122.845 155.733C127.032 162.672 133.517 166.838 128.567 175.502C119.15 191.985 113.348 201.818 108.579 220.904L108.81 221.198C113.935 227.671 120.603 233.303 126.439 239.158C136.066 248.817 145.505 258.668 155.006 268.449C158.102 271.636 163.938 276.456 166.13 279.795C170.801 286.909 164.523 296.923 155.908 295.497C149.88 294.499 143.26 285.21 139.198 281.094C127.659 269.401 116.556 257.216 104.414 246.145C103.676 294.906 123.099 316.27 158.456 345.015C164.668 350.065 170.53 355.686 177.899 359.057C196.505 367.568 226.841 360.776 240.83 347.036C244.264 343.664 246.253 341.308 246.291 336.301L246.261 316.724C234.362 313.766 224.421 308.219 217.98 297.456C204.467 274.875 228.462 268.45 233.807 279.538C234.83 281.66 234.725 283.956 235.371 286.163C239.207 299.257 270.475 304.4 277.802 283.493C279.05 279.932 280.077 276.283 283.747 274.458C294.938 268.894 300.448 281.319 295.978 292.625C290.886 305.504 279.606 313.723 266.421 316.724C266.39 337.86 261.862 344.46 282.653 355.081C297.292 361.746 317.339 366.43 332.735 360.792C342.94 357.055 379.634 322.954 385.94 315.375C402.001 296.071 408.395 269.641 407.978 244.983C399.517 254.171 390.212 262.626 381.454 271.537L367.481 285.657C362.448 290.77 355.416 300.524 347.438 292.935C337.522 283.503 353.236 272.532 359.143 266.197C370.563 253.949 392.191 229.082 404.86 220.023C398.756 207.998 396.526 196.878 388.634 183.517C385.588 178.36 380.472 172.399 382.709 165.966C383.69 163.145 387.56 159.773 389.387 155.911C397.764 138.204 407.454 107.166 399.196 89.2729C394.605 79.324 377.813 87.2076 371.009 90.8747C363.646 94.8435 357.016 100.553 351.109 106.446C336.49 121.032 338.96 118.684 322.437 109.056C281.853 85.4077 227.274 85.3118 187.21 110.402C170.324 120.976 171.187 116.506 157.245 103.49C148.172 95.0201 131.592 83.4027 118.732 84.5519ZM255.58 360.485C242.631 376.038 214.323 383.8 194.125 382.277C206.358 404.167 231.17 418.737 256.438 417.27C273.557 417.923 292.267 410.678 304.781 399.06C310.113 394.109 313.702 388.299 318.309 382.802C295.925 383.41 271.751 376.596 255.58 360.485Z"/>
	<path transform="scale(0.195312 0.195312)" d="M261.939 146.751C244.661 145.486 226.713 150.716 212.826 161.022C208.835 163.984 204.985 168.74 199.861 169.585C194.14 170.529 188.866 166.332 188.127 160.692C187.214 153.728 193.91 149.768 198.69 146.205C214.54 134.39 231.256 129.07 250.53 127.01C272.884 125.744 294.154 133.029 312.516 145.611C319.249 150.224 331.203 159.484 319.918 167.66C311.972 173.417 305.836 165.827 299.737 161.409C288.267 153.099 275.828 148.925 261.939 146.751Z"/>
	<path transform="scale(0.195312 0.195312)" d="M318.628 231.957C308.973 233.347 300.009 226.675 298.569 217.027C297.13 207.379 303.755 198.38 313.396 196.891C323.107 195.39 332.186 202.075 333.636 211.794C335.086 221.513 328.354 230.557 318.628 231.957Z"/>
	<path transform="scale(0.195312 0.195312)" d="M197.388 232.58C187.519 233.668 178.652 226.507 177.639 216.629C176.625 206.752 183.853 197.94 193.738 197.002C203.518 196.073 212.215 203.207 213.218 212.979C214.22 222.752 207.152 231.503 197.388 232.58Z"/>
</svg>
