<svg xmlns="http://www.w3.org/2000/svg" viewBox="0 0 512 512" fill="currentColor" aria-hidden="true">
  <g transform="translate(0, 512) scale(0.1, -0.1)">
    <path d="M1328 4370 c-156 -83 -157 -365 -2 -562 37 -48 43 -61 34 -77 -16 -31 -12 -103 9 -136 18 -29 18 -31 0 -65 -10 -19 -59 -79 -109 -134 -50 -54 -89 -100 -87 -102 2 -3 20 3 40 11 47 19 54 19 35 -2 -20 -23 -122 -192 -153 -252 -19 -39 -65 -171 -65 -189 0 -3 19 12 42 33 l41 40 -26 -46 c-47 -82 -77 -190 -77 -273 0 -62 3 -76 16 -76 10 0 14 -6 10 -17 -32 -107 -36 -363 -6 -363 4 0 14 17 22 38 l14 37 7 -82 c13 -152 60 -260 144 -332 26 -22 49 -38 51 -37 2 2 -2 24 -8 47 -6 24 -13 53 -16 64 -3 11 12 -7 34 -40 22 -33 56 -78 76 -100 l37 -40 -4 34 c-4 35 0 33 28 -14 9 -14 15 -10 43 29 37 54 38 56 15 56 -10 0 -31 11 -47 24 l-30 23 45 32 c58 43 120 74 199 99 99 32 230 63 249 60 9 -2 -25 -14 -74 -27 -115 -28 -130 -37 -82 -46 24 -5 53 -2 83 9 26 9 52 16 58 16 22 -1 -59 -31 -137 -50 -43 -11 -104 -34 -133 -51 -80 -45 -73 -49 14 -7 43 21 91 40 107 44 22 4 17 -1 -20 -19 -63 -31 -201 -133 -237 -176 -32 -38 -58 -118 -57 -175 1 -39 2 -37 15 21 25 116 74 177 220 273 89 59 259 138 271 126 2 -2 -28 -16 -66 -31 -53 -20 -71 -31 -71 -46 0 -13 -5 -17 -17 -12 -11 4 -14 3 -9 -5 4 -7 -15 -23 -51 -42 -85 -45 -29 -26 93 31 129 60 160 64 44 5 -80 -41 -140 -87 -140 -108 0 -5 12 -1 28 10 36 25 182 106 207 115 l20 7 -20 -16 c-11 -8 -40 -26 -65 -39 -62 -32 -194 -130 -255 -191 -27 -27 -60 -69 -73 -94 -21 -41 -22 -43 -2 -18 50 64 57 71 68 64 7 -4 12 -33 12 -70 0 -109 61 -202 290 -439 111 -116 166 -154 73 -52 -92 102 -144 171 -196 264 -42 73 -62 77 -32 5 8 -20 14 -39 11 -41 -4 -4 -94 133 -120 184 -31 61 -14 182 32 226 41 39 318 194 328 185 2 -3 -31 -24 -74 -48 -143 -81 -202 -129 -123 -102 24 9 32 7 45 -7 9 -10 13 -21 9 -25 -4 -4 1 -4 12 0 15 6 17 4 12 -9 -4 -9 -10 -25 -13 -34 -4 -10 15 3 42 29 27 26 78 68 114 95 35 26 65 53 65 58 0 6 -12 11 -27 13 -27 3 -35 12 -22 24 3 3 29 0 57 -8 63 -17 174 -17 242 1 49 12 49 12 -36 7 -140 -8 -306 32 -356 86 -42 46 -28 55 35 23 107 -56 245 -74 397 -52 l50 7 -55 7 c-30 3 -99 11 -153 17 -165 18 -297 73 -297 125 0 14 3 25 6 25 3 0 31 -16 62 -35 82 -49 156 -66 290 -63 62 2 112 4 112 6 0 10 -71 25 -172 38 -149 18 -213 42 -255 95 -28 35 -44 79 -28 79 3 0 24 -15 47 -33 60 -45 158 -87 220 -93 l53 -6 -95 44 c-52 25 -117 61 -143 81 -27 20 -53 37 -59 37 -13 0 -2 64 19 105 9 16 45 67 80 113 66 85 106 161 118 222 l6 35 -20 -42 c-22 -48 -76 -126 -156 -228 -35 -44 -62 -91 -72 -125 -9 -30 -19 -57 -21 -60 -8 -11 -22 28 -22 62 0 29 16 61 80 158 84 126 140 221 140 235 0 4 -27 -28 -59 -71 -32 -43 -91 -112 -130 -152 -80 -84 -83 -93 -50 -189 11 -34 19 -78 17 -99 l-3 -37 -25 39 c-14 21 -47 53 -75 71 -27 18 -55 43 -62 55 -16 29 -17 80 -1 96 15 15 90 16 106 0 16 -16 19 -11 24 48 l5 52 -36 6 c-95 16 -167 -10 -182 -64 -4 -15 -7 -18 -8 -8 -1 9 -15 58 -32 109 -53 159 -50 318 9 496 l28 82 -47 22 c-26 12 -55 19 -63 16 -24 -10 -20 31 8 89 l25 49 -50 -55 c-27 -30 -48 -59 -45 -66 2 -6 -2 -47 -10 -90 -17 -97 -17 -111 1 -59 11 32 13 34 10 10 -21 -150 -27 -252 -19 -365 4 -69 8 -179 9 -245 1 -137 8 -176 36 -201 10 -9 19 -21 19 -26 0 -11 -49 0 -77 18 -12 8 -29 14 -38 14 -10 0 -15 10 -15 28 l-1 27 -19 -35 c-25 -45 -25 -26 0 102 23 119 23 121 10 113 -18 -11 -23 48 -17 239 5 189 24 335 51 401 l14 33 -61 -35 c-68 -38 -97 -61 -97 -76 0 -5 8 -7 18 -3 11 4 9 0 -5 -10 -26 -18 -31 -39 -8 -30 21 8 19 -4 -7 -32 l-23 -25 23 12 23 12 -20 -40 c-12 -22 -21 -59 -21 -81 0 -37 2 -40 20 -30 18 10 19 7 14 -56 -2 -37 -10 -76 -16 -88 -11 -21 -11 -21 11 -2 l22 20 -7 -45 c-3 -24 -19 -89 -35 -143 -30 -104 -32 -127 -4 -79 l16 28 -6 -50 c-4 -27 -13 -60 -21 -72 -8 -13 -22 -35 -31 -50 l-17 -28 31 28 31 28 -5 -93 -4 -93 26 45 c21 38 24 41 19 15 -4 -16 -11 -41 -16 -55 -9 -25 -9 -25 21 4 23 22 31 26 31 13 0 -14 4 -15 38 -3 l37 13 11 -36 c10 -36 21 -41 57 -26 16 7 18 3 15 -20 -3 -25 -10 -30 -63 -45 -33 -9 -69 -22 -80 -29 l-20 -13 20 7 c54 17 314 76 361 81 55 7 62 12 44 30 -7 7 11 8 56 2 37 -4 69 -10 72 -13 12 -12 -11 -18 -75 -21 -136 -6 -354 -79 -433 -144 l-25 -21 40 19 c57 28 391 122 484 137 28 5 41 4 37 -3 -3 -5 -27 -13 -53 -16 -65 -10 -184 -43 -263 -74 -85 -33 -142 -73 -183 -127 l-34 -43 -16 26 c-8 15 -41 56 -72 92 -69 79 -96 134 -106 220 -5 45 -6 30 -3 -50 3 -63 7 -128 10 -145 3 -21 -7 -7 -33 44 -33 67 -37 83 -41 176 -5 121 6 169 72 298 25 48 41 85 36 82 -14 -8 -132 -211 -152 -260 -14 -33 -17 -36 -17 -15 -1 63 76 296 137 414 20 37 48 77 64 89 43 32 33 41 -14 13 -73 -43 -109 -76 -149 -139 -21 -33 -39 -55 -39 -48 0 24 42 93 95 156 30 35 55 67 55 71 0 3 -21 -6 -46 -21 l-45 -27 22 44 c12 24 33 60 45 80 13 21 24 40 24 42 0 3 -18 -1 -40 -9 -22 -8 -40 -12 -40 -9 0 2 13 30 29 62 41 80 89 144 103 136 6 -4 8 -3 5 3 -8 12 39 51 158 128 153 101 286 243 394 419 68 111 6 53 -139 -130 -77 -97 -148 -162 -280 -256 -47 -34 -95 -70 -107 -81 -49 -44 -10 29 66 122 l36 44 -55 -27 -55 -27 30 26 c17 15 64 51 105 80 41 30 89 66 105 80 l30 25 -27 -6 c-15 -3 -36 -3 -48 1 -19 6 -14 11 37 47 80 55 84 61 34 43 -24 -8 -63 -15 -87 -15 -35 0 -44 3 -44 18 0 14 9 17 48 18 26 0 72 10 102 22 l55 21 -45 1 c-52 0 -45 10 25 35 28 10 54 21 58 25 4 4 -20 17 -53 29 -34 13 -60 25 -57 27 2 3 16 0 31 -6 15 -5 44 -10 64 -10 l37 1 -37 13 c-39 14 -110 54 -143 81 -11 9 3 5 31 -9 29 -14 75 -34 104 -45 79 -30 45 0 -79 70 -79 44 -97 58 -71 53 29 -6 136 -37 209 -61 24 -8 -25 26 -114 80 -82 49 -74 52 34 15 30 -10 56 -16 58 -14 6 6 -145 87 -191 102 l-41 14 44 -6 c54 -8 126 -32 201 -67 l55 -26 -35 30 c-45 38 -164 98 -232 115 l-53 14 70 -4 c58 -3 83 -11 157 -49 97 -49 98 -41 4 30 -81 61 -151 93 -205 93 -109 0 -162 -148 -111 -314 11 -36 36 -86 56 -111 22 -30 28 -43 16 -36 -28 15 -69 73 -104 147 -26 55 -32 82 -35 158 -4 85 -3 95 24 145 33 65 65 90 121 98 85 11 177 -46 331 -205 46 -48 69 -68 51 -45 l-32 43 116 -58 c109 -54 114 -58 95 -72 -70 -52 -74 -60 -14 -30 49 25 79 32 166 40 59 5 135 16 170 24 35 7 89 17 119 21 64 9 101 21 112 38 5 8 8 6 8 -5 0 -31 -40 -56 -108 -68 -100 -19 -227 -57 -283 -86 -55 -27 -127 -90 -162 -138 -21 -31 -21 -31 21 5 83 71 145 96 271 109 136 14 190 29 237 65 l36 27 -16 -30 c-14 -28 -104 -82 -136 -82 -6 0 -45 -14 -85 -31 -72 -30 -135 -82 -164 -138 -17 -30 -2 -27 79 20 82 48 270 132 277 125 9 -8 -49 -105 -71 -119 -12 -7 -52 -22 -90 -32 -90 -24 -193 -75 -231 -115 l-30 -32 40 21 c46 24 127 41 192 41 24 0 56 6 71 14 33 17 90 76 127 131 l28 40 -7 -43 c-10 -70 -51 -137 -109 -183 -56 -45 -70 -62 -65 -83 5 -21 139 93 165 140 21 36 23 37 23 13 0 -42 -28 -111 -58 -142 -15 -16 -52 -42 -83 -58 -72 -39 -101 -87 -101 -168 0 -45 7 -71 31 -117 l31 -59 -8 45 c-20 123 2 182 90 246 28 21 63 55 79 77 l29 40 0 -34 c0 -19 -15 -61 -34 -97 -19 -35 -29 -59 -22 -53 7 6 23 34 37 63 l24 52 6 -110 5 -109 3 145 c1 90 5 137 11 124 4 -11 28 -38 51 -60 24 -21 60 -56 81 -77 21 -20 35 -30 32 -22 -10 26 14 17 35 -13 39 -55 45 -141 16 -227 -4 -11 11 9 34 45 34 54 41 73 41 115 0 28 -9 69 -21 95 -24 53 -70 105 -79 90 -9 -15 -97 24 -133 58 -34 32 -62 84 -71 132 -6 30 -5 32 5 15 20 -34 72 -85 109 -107 19 -12 45 -30 57 -41 13 -11 25 -18 28 -15 14 14 -24 63 -71 93 -77 50 -105 93 -129 200 -6 29 -6 29 23 -10 35 -49 118 -124 150 -136 13 -5 42 -9 66 -9 58 0 155 -19 191 -37 l30 -16 -20 22 c-27 31 -165 96 -252 119 -40 11 -84 27 -97 36 -25 16 -83 103 -74 111 6 6 178 -60 242 -92 28 -14 75 -41 104 -59 l52 -34 -19 39 c-43 84 -100 122 -249 167 -101 30 -152 65 -152 105 l0 23 16 -22 c28 -40 90 -62 232 -83 151 -21 221 -40 267 -72 l30 -21 -24 27 c-46 50 -185 111 -351 152 -89 22 -145 50 -158 81 -7 14 -12 27 -12 29 0 2 21 -7 48 -20 73 -38 254 -75 369 -75 80 0 109 -5 156 -24 63 -26 73 -25 26 3 l-31 19 65 36 c35 20 69 36 76 36 25 0 92 42 148 92 104 95 109 95 24 1 -46 -51 -78 -93 -72 -93 6 0 69 56 139 124 132 128 160 145 220 131 43 -9 89 -63 113 -131 43 -120 6 -273 -91 -378 -57 -61 -68 -58 -25 7 93 140 101 314 18 387 -39 34 -78 38 -126 14 -33 -18 -138 -96 -134 -101 2 -1 30 8 62 21 64 25 145 41 145 29 0 -5 -26 -16 -58 -26 -54 -17 -245 -117 -237 -125 2 -2 38 11 82 28 74 30 193 63 200 56 2 -2 -22 -14 -54 -27 -32 -12 -85 -35 -118 -51 -52 -24 -56 -28 -30 -28 17 0 57 7 90 15 92 22 89 18 -25 -31 -58 -25 -109 -49 -114 -54 -15 -15 90 0 179 26 44 12 81 21 83 19 4 -4 -148 -87 -211 -115 -55 -24 -77 -22 -131 15 -53 36 -55 31 -5 -11 40 -33 47 -36 91 -30 46 6 82 17 163 50 36 15 38 15 20 1 -32 -26 -97 -58 -135 -66 -26 -6 -19 -7 30 -5 36 2 74 6 85 10 11 3 -2 -5 -30 -19 -27 -13 -57 -25 -64 -25 -35 0 9 -21 57 -27 54 -6 62 -23 11 -23 -40 0 -37 -10 15 -42 31 -20 56 -28 90 -28 48 0 62 -13 24 -24 -40 -10 -98 -6 -135 9 -45 19 -45 19 42 -45 l70 -52 -39 4 -39 4 94 -88 c66 -63 83 -82 57 -67 -60 34 -44 14 20 -25 32 -19 67 -45 78 -57 l19 -22 -40 7 c-58 11 -265 156 -334 235 -121 137 -162 178 -201 200 -37 21 -41 21 -32 5 18 -33 194 -229 251 -280 30 -27 80 -67 111 -89 32 -22 109 -90 173 -150 106 -101 120 -118 166 -210 54 -109 74 -155 65 -155 -3 0 -14 5 -25 10 -16 9 -14 3 10 -37 31 -51 56 -129 64 -201 7 -55 3 -51 -27 30 -48 127 -86 193 -149 263 -35 39 -69 81 -76 93 -12 22 -11 23 9 17 21 -7 21 -6 5 19 -17 25 -16 26 1 26 16 0 13 5 -11 25 -37 31 -115 79 -119 74 -2 -2 5 -37 15 -78 25 -100 39 -215 40 -341 0 -107 6 -110 28 -15 7 28 22 81 33 119 l21 70 24 -30 c40 -47 92 -131 113 -180 l20 -45 -36 27 c-19 15 -56 37 -82 49 l-47 22 71 -72 c47 -49 84 -99 112 -153 23 -44 42 -84 42 -88 0 -4 -22 25 -49 66 -53 81 -66 95 -125 130 l-40 24 31 -45 c63 -92 141 -254 153 -316 16 -81 8 -233 -16 -303 l-19 -55 -6 135 c-6 136 -15 174 -59 259 -31 61 -34 46 -5 -25 38 -95 49 -189 36 -316 -7 -59 -15 -116 -19 -126 -11 -29 -20 65 -15 154 3 44 2 103 -2 130 l-7 49 -22 -55 c-26 -63 -66 -129 -90 -149 -14 -12 -25 -10 -76 13 -33 15 -89 33 -123 41 -34 7 -53 14 -41 14 11 1 29 10 40 22 12 14 25 18 41 14 13 -3 23 -1 23 5 0 6 5 8 10 5 6 -3 10 -1 10 5 0 6 12 4 31 -6 l32 -16 -7 25 c-7 31 9 44 31 25 14 -12 16 -10 11 17 -6 29 -6 29 10 9 10 -11 24 -31 33 -45 26 -38 32 -17 21 68 -6 43 -9 79 -7 81 2 2 11 -9 20 -25 l16 -28 -6 35 c-3 19 -19 64 -35 99 -34 73 -38 97 -10 61 27 -34 25 -16 -2 23 -23 34 -68 76 -81 77 -5 0 -8 -35 -7 -77 3 -111 3 -109 -19 -89 -18 16 -37 73 -43 126 -2 16 -12 -6 -26 -60 -29 -101 -60 -165 -100 -203 -23 -22 -45 -31 -101 -39 -40 -6 -74 -8 -77 -5 -13 13 35 61 98 98 38 23 78 54 88 71 18 30 31 107 66 383 16 122 15 214 -1 355 l-5 45 20 -41 c37 -77 50 -155 57 -334 6 -141 9 -166 16 -130 16 82 11 229 -11 325 -11 50 -24 117 -27 150 -8 76 -46 156 -93 195 -20 16 -37 28 -39 26 -2 -1 4 -16 12 -33 8 -16 17 -43 21 -59 5 -27 2 -31 -50 -56 l-55 -27 13 -39 c18 -51 36 -165 37 -244 l2 -63 7 55 c5 30 9 84 10 120 l2 65 14 -45 c19 -59 38 -297 31 -380 -3 -36 -15 -90 -25 -120 -16 -47 -20 -52 -26 -33 -18 56 -97 89 -149 62 -30 -16 -37 -28 -37 -71 0 -36 0 -37 26 -23 56 29 106 -17 90 -81 -7 -27 -141 -166 -150 -156 -12 11 -6 60 14 117 11 32 20 67 20 78 0 26 -31 68 -115 157 -39 42 -91 101 -114 133 -24 31 -45 57 -48 57 -8 0 46 -85 110 -173 106 -143 119 -168 115 -224 l-3 -48 -28 59 c-15 33 -63 107 -106 165 -43 58 -86 121 -95 139 -19 38 -30 43 -16 7 21 -55 55 -114 111 -192 33 -45 68 -102 79 -125 20 -45 26 -88 12 -88 -5 0 -30 -17 -56 -37 -26 -20 -88 -58 -139 -84 -95 -50 -93 -64 5 -30 74 25 106 43 152 85 48 43 56 44 56 8 0 -39 -59 -97 -125 -121 -29 -11 -103 -27 -164 -35 -62 -9 -125 -23 -142 -31 -38 -20 -37 -27 2 -13 18 6 59 8 99 4 106 -9 188 12 292 76 20 13 40 19 44 15 15 -14 -16 -56 -60 -82 -61 -36 -125 -52 -286 -70 -74 -9 -136 -18 -138 -19 -2 -2 41 -7 95 -11 133 -10 228 5 311 51 35 19 68 34 73 32 5 -2 0 -18 -11 -36 -40 -65 -200 -110 -355 -98 l-70 5 50 -14 c28 -7 80 -14 117 -14 l68 -1 77 -74 c42 -41 80 -73 84 -71 4 3 14 -7 24 -21 13 -21 19 -23 31 -13 12 10 20 7 45 -17 55 -52 55 -60 2 -88 -82 -42 -156 -127 -208 -241 -50 -108 -49 -108 43 7 39 48 97 102 157 147 52 40 95 75 95 80 0 19 -98 140 -181 225 -49 49 -89 91 -89 93 0 1 6 3 13 2 6 0 48 -40 91 -89 43 -49 83 -87 88 -84 4 3 8 17 8 31 0 22 2 24 15 13 9 -7 25 -25 35 -40 16 -23 18 -33 9 -58 -8 -24 -7 -37 6 -61 8 -17 18 -31 21 -31 3 0 20 11 39 26 40 30 46 23 47 -54 1 -47 2 -52 10 -32 28 75 -53 223 -173 314 -78 60 -67 37 21 -43 44 -40 80 -80 80 -89 -1 -11 -18 2 -51 38 -28 30 -55 54 -60 52 -5 -1 -9 5 -9 13 0 8 -30 36 -66 62 -36 26 -60 49 -54 51 6 2 22 -5 34 -17 24 -23 42 -28 30 -9 -4 7 21 -8 57 -33 90 -63 88 -62 82 -39 -6 24 -58 71 -113 102 -22 13 -40 27 -40 31 0 12 78 -34 179 -106 l83 -59 -25 -25 -25 -25 22 -44 c11 -24 23 -43 26 -43 3 -1 25 17 50 39 l45 39 -30 25 c-16 14 -69 54 -117 88 -96 68 -112 93 -22 34 31 -21 53 -33 50 -27 -10 15 -115 95 -151 114 -16 9 -27 16 -24 17 15 0 149 -44 217 -72 l74 -30 -33 -34 -33 -34 35 -36 36 -36 58 66 c55 62 60 65 76 50 56 -51 74 -161 43 -265 -29 -96 -106 -231 -187 -327 -23 -28 -18 -24 22 13 73 70 139 173 168 262 53 168 39 258 -53 351 l-53 53 -31 -16 c-33 -17 -36 -25 -18 -43 23 -23 -8 -11 -122 49 -63 33 -108 58 -98 55 9 -2 24 1 34 9 15 11 26 10 64 -1 25 -7 53 -11 64 -8 13 4 16 3 11 -6 -5 -9 -4 -11 4 -6 6 4 25 -3 43 -15 17 -13 28 -17 24 -10 -5 7 -35 30 -67 50 -33 21 -56 40 -53 44 15 15 -145 57 -217 57 -21 0 -39 5 -39 10 0 6 46 9 123 8 104 -1 111 -2 52 -7 l-70 -6 85 -14 c115 -18 262 -56 297 -75 27 -15 27 -16 3 -11 -19 5 -32 -1 -54 -24 l-30 -31 24 -25 c30 -32 40 -32 70 5 l25 30 34 -32 33 -31 -4 -101 c-3 -56 -12 -120 -21 -144 -8 -23 -13 -42 -11 -42 2 0 16 24 30 53 19 36 29 74 32 121 l5 69 17 -34 18 -33 36 72 c68 135 113 363 95 486 -5 38 -8 71 -6 73 2 2 15 -17 28 -42 13 -25 27 -45 31 -45 4 0 5 19 3 43 -3 23 -10 101 -16 172 -10 123 -20 187 -35 231 -6 16 -3 15 20 -6 l27 -24 -28 79 c-15 44 -68 161 -118 261 -83 164 -89 180 -68 176 13 -2 23 0 23 5 0 5 -38 52 -85 104 -47 52 -97 117 -111 145 l-25 52 20 33 c25 40 28 116 7 144 -13 18 -10 24 31 68 189 202 144 567 -72 585 -49 4 -65 0 -128 -31 -40 -20 -121 -77 -180 -127 l-108 -90 -58 0 c-48 0 -75 8 -152 44 -329 156 -734 155 -1084 -1 -148 -67 -162 -65 -279 43 -83 77 -175 140 -224 154 -58 16 -133 11 -174 -10z m1147 -115 c-33 -7 -98 -21 -145 -30 -91 -18 -259 -70 -274 -85 -19 -19 2 -19 66 -1 61 18 215 42 356 57 l64 6 -16 -31 c-9 -17 -24 -34 -34 -39 -9 -5 -82 -21 -162 -36 -80 -15 -167 -31 -193 -36 -75 -15 -134 -12 -177 10 -22 11 -40 24 -40 29 0 4 25 13 55 20 30 7 61 18 68 25 34 35 242 97 387 115 95 12 114 10 45 -4z m285 -11 c110 -19 242 -61 285 -90 19 -13 63 -31 97 -42 l62 -18 -39 -18 c-75 -36 -106 -34 -405 16 -121 21 -126 23 -163 61 -21 21 -36 41 -34 43 11 11 389 -46 444 -67 15 -5 31 -6 41 0 13 7 9 12 -22 25 -58 24 -209 63 -313 81 -109 18 -165 37 -88 29 28 -3 88 -12 135 -20z m1100 -975 c6 -10 10 -21 10 -25 0 -10 -30 17 -41 37 -7 15 -6 17 6 13 9 -4 20 -15 25 -25z m-2330 -219 c-21 -112 -8 -239 45 -421 18 -64 22 -94 16 -116 -5 -17 -6 -43 -3 -59 7 -38 95 -125 159 -158 50 -25 93 -67 93 -90 0 -8 -21 -11 -67 -8 l-68 3 -56 59 c-133 141 -191 355 -169 626 8 96 43 235 56 221 2 -2 0 -28 -6 -57z m2198 -682 c7 -7 12 -21 12 -31 0 -17 -2 -18 -17 -6 -10 7 -7 1 6 -14 14 -15 19 -27 12 -27 -6 0 -23 -11 -35 -24 -42 -41 -60 -40 -31 2 16 23 25 51 25 74 0 39 8 46 28 26z m-2165 -152 c3 -8 1 -17 -6 -19 -7 -2 58 -7 143 -10 145 -6 232 -20 276 -45 24 -14 13 -15 -21 -2 -35 13 -279 40 -366 40 -61 0 -69 2 -69 19 0 17 11 28 31 30 4 1 9 -5 12 -13z m2087 -16 c0 -6 -29 -10 -67 -10 -38 0 -84 -4 -103 -9 -60 -16 -160 -24 -160 -13 0 12 132 31 240 35 41 2 78 4 83 5 4 1 7 -2 7 -8z m-360 -50 c-6 -11 -20 -20 -30 -20 -27 0 -25 7 8 24 35 19 35 20 22 -4z m168 -2 c-5 -15 -46 -25 -108 -27 -45 -1 -45 -1 -18 13 46 24 132 33 126 14z m-27 -107 c89 -20 166 -47 157 -56 -3 -3 -18 0 -34 6 -50 20 -168 49 -199 49 -16 0 -37 5 -45 10 -24 16 24 12 121 -9z m-46 -46 c40 -18 20 -18 -30 0 -22 8 -31 14 -20 14 11 0 34 -6 50 -14z m-75 -15 c8 -5 11 -10 5 -10 -5 0 -17 5 -25 10 -8 5 -10 10 -5 10 6 0 17 -5 25 -10z m-134 -172 l48 -63 -65 59 c-35 33 -66 61 -68 63 -2 2 5 3 17 3 14 0 36 -21 68 -62z m-1214 -9 c-33 -28 -63 -57 -66 -65 -6 -16 -26 -19 -26 -4 0 11 129 120 143 120 5 0 -18 -23 -51 -51z"/>
    <path d="M2423 4160 c-82 -12 -197 -40 -213 -51 -12 -8 -10 -9 10 -5 14 3 75 15 135 27 152 29 195 48 68 29z"/>
    <path d="M2641 4156 c4 -4 58 -18 121 -31 63 -13 123 -27 134 -30 10 -3 3 2 -16 11 -44 20 -253 64 -239 50z"/>
t-path d="M3373 4003 c9 -2 25 -2 35 0 9 3 1 5 -18 5 -19 0 -27 -2 -17 -5z"/>
    <path d="M2976 3966 c27 -14 85 -58 127 -97 68 -63 77 -68 77 -47 0 58 -116 146 -215 163 l-40 7 51 -26z"/>
    <path d="M2023 3939 c-51 -25 -113 -91 -113 -120 0 -11 4 -19 9 -17 18 6 170 158 158 158 -6 -1 -31 -10 -54 -21z"/>
    <path d="M3236 3875 c10 -16 25 -38 33 -48 14 -17 13 -17 -13 -7 -52 19 -38 2 26 -33 68 -38 161 -71 180 -65 6 2 -27 23 -73 47 -53 27 -100 60 -127 90 -32 34 -39 39 -26 16z"/>
    <path d="M1839 3853 c-8 -9 -54 -43 -103 -75 -48 -32 -81 -58 -72 -58 42 0 162 85 187 132 12 23 6 23 -12 1z"/>
    <path d="M3268 3636 c18 -20 57 -87 88 -148 60 -119 72 -126 81 -44 5 44 4 47 -53 107 -33 34 -79 75 -104 92 l-45 31 33 -38z"/>
t-path d="M1781 3584 c-45 -42 -84 -87 -87 -100 -6 -25 12 -84 26 -84 13 0 50 51 50 69 0 25 44 113 75 149 51 61 18 43 -64 -34z"/>
    <path d="M2210 3574 c-45 -19 -97 -69 -121 -116 -30 -59 -22 -68 11 -11 33 57 62 73 89 49 29 -26 47 -19 85 33 20 27 36 51 36 55 0 12 -65 5 -100 -10z"/>
    <path d="M2790 3579 c0 -5 24 -35 53 -66 28 -31 46 -53 40 -49 -18 10 -16 -15 3 -42 13 -18 19 -21 30 -11 13 10 12 15 0 34 -14 21 -13 24 4 40 22 20 51 9 88 -33 l24 -27 -13 25 c-25 53 -53 82 -102 110 -52 30 -127 41 -127 19z"/>
    <path d="M1852 3523 c-16 -27 -38 -63 -48 -81 -11 -20 -24 -30 -32 -27 -10 3 -12 0 -8 -10 3 -8 2 -15 -2 -15 -17 0 -32 -41 -22 -60 8 -15 6 -35 -6 -77 l-17 -58 31 -24 c16 -14 56 -34 88 -45 44 -16 64 -29 79 -54 11 -18 29 -47 40 -65 23 -36 95 -77 137 -77 15 0 28 -5 28 -12 0 -6 7 -4 18 5 22 20 33 21 66 6 38 -18 60 -84 54 -162 l-6 -62 19 42 c11 23 27 71 36 107 22 83 10 146 -49 266 -41 81 -43 90 -43 173 0 48 -1 87 -2 87 -1 0 -10 -14 -19 -32 -29 -56 -21 -125 25 -214 40 -79 63 -152 43 -140 -5 3 -24 42 -42 86 -18 43 -35 79 -38 78 -4 -1 -29 9 -56 22 -49 22 -84 23 -197 4 -29 -5 -41 -1 -64 18 -51 45 -51 184 -1 311 13 31 22 57 21 57 -2 0 -16 -21 -33 -47z m290 -394 c22 -12 34 -57 21 -78 -6 -9 -24 -20 -41 -25 -58 -16 -104 36 -88 100 6 24 9 25 49 19 23 -4 50 -11 59 -16z m-149 -48 c20 -58 58 -89 110 -93 43 -2 39 -18 -5 -18 -56 0 -98 29 -124 84 -27 58 -30 76 -11 76 7 0 20 -22 30 -49z"/>
    <path d="M2090 3095 c0 -8 5 -15 10 -15 6 0 10 7 10 15 0 8 -4 15 -10 15 -5 0 -10 -7 -10 -15z"/>
    <path d="M3253 3525 c38 -77 57 -152 57 -225 0 -58 -3 -71 -26 -95 -24 -26 -28 -27 -82 -19 -164 25 -222 -4 -288 -141 -27 -55 -33 -63 -28 -35 3 19 17 53 31 75 43 70 91 134 96 129 2 -3 28 9 56 26 37 21 65 30 97 30 34 0 51 6 69 25 32 31 31 56 -1 94 l-25 31 -22 -26 c-21 -24 -24 -25 -75 -13 -63 15 -66 12 -82 -67 -6 -28 -17 -60 -25 -70 -13 -18 -14 -16 -15 19 0 36 -23 107 -34 107 -3 0 -3 -26 0 -59 8 -67 -5 -115 -48 -183 -38 -61 -49 -133 -32 -214 12 -59 80 -222 88 -213 3 2 -2 29 -10 59 -21 81 -18 124 10 157 22 25 27 27 54 17 55 -21 150 10 191 62 12 15 26 45 33 66 11 37 18 43 85 74 40 18 76 40 79 49 4 9 -1 43 -11 75 -13 44 -15 63 -7 73 8 10 -3 32 -47 94 -31 44 -70 96 -85 114 l-27 34 24 -50z m-153 -224 c0 -12 -81 -84 -87 -77 -9 8 57 86 73 86 8 0 14 -4 14 -9z m18 -163 c15 -15 15 -58 -1 -79 -19 -25 -57 -41 -82 -35 -56 14 -74 73 -30 102 30 20 49 10 40 -23 -4 -18 -2 -24 7 -20 7 2 12 15 10 27 -4 35 32 52 56 28z m82 -35 c0 -39 -30 -94 -64 -114 -33 -20 -101 -26 -111 -9 -4 6 8 10 29 10 49 0 103 48 117 106 12 46 29 50 29 7z"/>
    <path d="M2232 3473 c-22 -8 -35 -43 -22 -59 10 -12 15 -10 31 10 27 35 23 60 -9 49z"/>
    <path d="M1901 3431 c-28 -38 -36 -83 -21 -111 14 -26 67 -50 110 -50 45 0 93 -23 144 -71 25 -23 46 -39 46 -36 0 4 -11 31 -24 61 -13 29 -27 72 -31 95 -4 22 -11 41 -16 41 -13 0 -11 -77 2 -102 8 -15 0 -12 -35 14 -48 35 -59 54 -26 43 18 -6 20 -2 20 34 l0 40 -63 -6 c-71 -6 -93 7 -85 52 7 32 4 31 -21 -4z"/>
    <path d="M2594 3405 c9 -37 49 -107 72 -126 10 -8 -2 22 -26 66 -51 94 -55 100 -46 60z"/>
    <path d="M3711 3216 c10 -10 129 -54 124 -46 -3 5 -30 18 -61 29 -53 20 -72 25 -63 17z"/>
    <path d="M1312 3193 c-24 -8 -41 -17 -39 -19 2 -2 28 5 58 15 30 11 47 20 39 19 -8 0 -34 -6 -58 -15z"/>
    <path d="M1682 3108 c-37 -61 -54 -138 -57 -268 -3 -105 -2 -113 4 -50 5 41 12 91 16 110 8 34 9 33 21 -33 7 -38 24 -87 37 -110 38 -64 110 -137 136 -137 27 0 93 33 146 73 63 48 63 50 0 20 -64 -30 -163 -39 -185 -17 -9 9 7 16 63 28 41 9 83 23 93 31 17 12 13 13 -37 12 -106 -2 -163 60 -165 181 -1 44 -6 68 -18 81 -18 20 -15 51 6 78 5 7 7 17 3 23 -13 20 -44 9 -63 -22z"/>
    <path d="M3392 3127 c-7 -8 -6 -18 4 -31 18 -26 18 -54 -2 -73 -9 -10 -13 -25 -10 -37 17 -63 18 -126 1 -175 -34 -104 -92 -140 -165 -103 -22 11 -40 16 -40 12 0 -19 108 -100 134 -100 29 0 96 55 129 105 l19 30 -6 -40 -5 -40 15 28 c34 64 33 252 -2 362 -23 73 -46 93 -72 62z"/>
    <path d="M2352 3020 c0 -78 1 -81 8 -33 4 29 4 67 0 85 -6 24 -8 10 -8 -52z"/>
    <path d="M3290 3053 c0 -48 -45 -109 -102 -137 l-52 -26 39 0 c60 0 119 34 154 89 38 58 39 74 6 89 -38 17 -45 15 -45 -15z"/>
    <path d="M1800 3047 c0 -7 28 -41 63 -75 65 -64 103 -83 167 -81 l35 1 -33 11 c-52 19 -102 66 -122 113 -19 43 -21 44 -65 44 -30 0 -45 -4 -45 -13z"/>
    <path d="M1426 2983 c-10 -34 -19 -102 -21 -163 l-4 -105 9 91 c5 51 16 122 25 159 19 85 14 95 -9 18z"/>
    <path d="M2782 2965 c0 -16 2 -22 5 -12 2 9 2 23 0 30 -3 6 -5 -1 -5 -18z"/>
    <path d="M2791 2904 c0 -16 4 -38 9 -49 6 -13 7 -5 3 25 -7 53 -13 66 -12 24z"/>
    <path d="M1873 2855 c29 -25 60 -30 107 -15 23 7 22 8 -11 9 -20 1 -56 8 -80 16 l-44 15 28 -25z"/>

    <path d="M3305 2864 c-11 -7 -45 -17 -75 -22 l-55 -8 47 -18 c56 -22 83 -15 97 26 13 38 12 40 -14 22z"/>
    <path d="M2336 2655 c-9 -26 -7 -32 5 -12 6 10 9 21 6 23 -2 3 -7 -2 -11 -11z"/>
    <path d="M2896 2655 c3 -11 16 -65 29 -120 13 -55 24 -91 24 -79 2 39 -20 135 -40 177 -11 23 -17 33 -13 22z"/>
    <path d="M2305 2565 c-9 -31 -15 -64 -13 -73 2 -10 12 14 21 52 22 83 15 100 -8 21z"/>
    <path d="M3921 2472 c17 -29 34 -52 36 -52 7 0 -41 81 -55 92 -7 7 1 -12 19 -40z"/>
    <path d="M2261 2381 c-22 -41 -5 -122 35 -171 15 -17 56 -48 93 -69 68 -40 180 -124 193 -144 17 -27 8 -73 -19 -99 -51 -47 -265 -159 -300 -158 -4 1 14 20 42 45 l49 43 -67 -12 c-75 -14 -86 -24 -116 -101 -11 -27 -20 -41 -20 -30 0 11 10 46 23 77 21 51 22 56 5 48 -26 -14 -83 -87 -112 -145 -31 -60 -35 -55 -7 9 12 25 43 75 71 111 27 36 45 65 38 65 -20 0 -193 -118 -229 -156 -19 -20 -30 -34 -23 -30 6 3 25 -5 41 -19 16 -14 34 -25 39 -25 5 0 15 -6 21 -12 7 -7 19 -13 28 -13 9 0 26 -33 48 -95 18 -52 49 -127 69 -166 41 -81 140 -231 192 -289 l35 -40 -6 30 c-3 17 -8 38 -11 48 -3 11 15 -1 44 -30 199 -196 236 -227 247 -209 28 47 108 147 114 141 3 -3 30 18 59 47 49 48 53 50 53 28 0 -20 9 -11 50 45 126 174 191 325 194 447 1 59 3 65 18 57 22 -12 31 -11 23 0 -8 14 15 25 28 12 8 -8 16 -6 29 6 16 14 23 15 39 5 10 -7 19 -8 19 -3 0 15 -165 163 -213 191 l-42 25 23 -35 c34 -51 82 -147 82 -162 0 -7 -16 16 -35 52 -38 71 -87 122 -108 114 -8 -3 -33 -1 -57 5 l-43 9 37 -37 c20 -20 36 -40 36 -43 0 -9 -267 118 -303 144 -38 27 -51 62 -35 96 8 15 60 57 123 99 197 130 215 151 215 251 0 34 -4 62 -9 62 -5 0 -23 -17 -40 -39 -30 -38 -31 -38 -70 -28 -32 9 -51 7 -103 -9 -83 -25 -193 -25 -276 0 -52 16 -71 18 -103 9 -38 -10 -41 -9 -54 17 -7 14 -20 32 -29 39 -12 10 -17 9 -25 -8z m209 -82 c25 -12 76 -24 114 -27 57 -4 83 0 157 23 75 24 92 27 114 17 39 -18 26 -34 -36 -47 -94 -18 -149 -76 -149 -156 0 -43 -23 -32 -31 14 -9 55 -16 54 -24 -2 -8 -60 -18 -59 -35 6 l-13 48 -10 -45 -11 -45 -6 46 c-10 84 -56 125 -151 136 -53 6 -66 27 -26 43 34 14 58 11 107 -11z m87 -555 c-3 -3 -41 -21 -83 -40 -75 -32 -136 -74 -89 -60 50 14 158 37 161 33 2 -2 -3 -12 -12 -23 -8 -10 -12 -12 -8 -4 7 13 5 13 -9 2 -21 -17 -57 -92 -57 -118 1 -13 5 -8 15 14 8 18 35 53 60 77 25 24 45 52 45 61 0 10 3 15 6 12 3 -4 -1 -26 -9 -50 -14 -43 -32 -137 -20 -108 3 8 19 44 35 79 l29 65 26 -40 c15 -21 40 -61 55 -89 15 -27 28 -45 28 -38 0 11 -34 106 -54 154 -6 15 -2 16 31 12 21 -3 69 -14 108 -24 38 -10 71 -16 73 -15 5 6 -80 51 -142 77 -68 28 -52 38 31 20 43 -10 66 -25 135 -87 86 -78 142 -149 132 -166 -4 -6 -10 -5 -15 3 -11 18 -10 19 -47 -98 -33 -101 -52 -135 -52 -92 0 22 -22 -5 -137 -168 -32 -44 -33 -45 -33 -17 l0 29 -20 -25 c-11 -14 -37 -58 -58 -98 l-38 -72 -97 98 c-106 109 -147 179 -171 293 -12 62 -13 63 -19 29 -7 -34 5 -137 18 -163 24 -45 -40 50 -71 107 -31 57 -40 85 -44 141 l-6 70 -19 -37 c-21 -43 -35 -49 -35 -15 1 43 37 103 76 127 22 13 62 45 90 72 28 27 69 56 90 63 39 14 113 20 101 9z m-410 -106 c-3 -8 -6 -5 -6 6 -1 11 2 17 5 13 3 -3 4 -12 1 -19z"/>
    <path d="M2690 1677 c0 -4 20 -37 45 -74 47 -69 54 -73 31 -20 -15 33 -75 108 -76 94z"/>
    <path d="M2807 1593 c34 -32 74 -77 89 -100 33 -53 39 -55 19 -5 -29 69 -61 107 -116 136 l-54 28 62 -59z"/>
    <path d="M2395 1586 c-23 -24 -45 -53 -48 -66 -3 -13 -2 -19 2 -14 4 5 31 35 61 67 61 66 47 79 -15 13z"/>
    <path d="M2859 1347 c-25 -78 -21 -92 14 -46 13 19 17 39 15 75 l-3 49 -26 -78z"/>
    <path d="M2777 1365 c-5 -16 -27 -59 -51 -95 -24 -36 -51 -81 -60 -100 -16 -33 -14 -32 29 15 55 59 98 143 93 182 l-3 28 -8 -30z"/>
    <path d="M2436 1310 c15 -77 96 -206 160 -255 l36 -27 -18 33 c-9 19 -41 66 -69 105 -29 39 -67 95 -85 125 -29 51 -31 52 -24 19z"/>
    <path d="M1182 2285 c0 -16 2 -22 5 -12 2 9 2 23 0 30 -3 6 -5 -1 -5 -18z"/>
    <path d="M3033 2224 c-17 -7 -34 -18 -38 -24 -8 -12 65 16 80 31 13 13 -3 10 -42 -7z"/>
    <path d="M2150 2225 c0 -8 82 -47 87 -41 3 2 -13 14 -36 25 -41 22 -51 25 -51 16z"/>
    <path d="M1609 1960 c-19 -10 -42 -27 -50 -36 -13 -17 -12 -17 17 0 34 20 82 56 74 55 -3 0 -21 -8 -41 -19z"/>
    <path d="M3520 1826 c0 -2 8 -10 18 -17 15 -13 16 -12 3 4 -13 16 -21 21 -21 13z"/>
    <path d="M1140 1769 c0 -113 67 -307 150 -430 43 -64 159 -209 167 -209 2 0 -16 28 -40 63 -77 107 -136 240 -151 338 -4 24 -21 70 -37 101 -17 32 -36 79 -44 105 -8 27 -21 57 -29 68 -14 19 -15 16 -16 -36z"/>
    <path d="M1524 1768 c-11 -13 -28 -34 -39 -47 l-20 -24 31 6 c18 3 34 4 37 1 2 -3 -7 -37 -21 -77 -54 -149 -24 -269 99 -398 60 -63 60 -63 25 -14 -83 114 -136 232 -136 300 0 48 39 148 55 141 7 -2 25 8 40 24 l27 29 -28 40 c-33 47 -43 49 -70 19z"/>
    <path d="M3631 1715 c41 -86 41 -91 36 -175 -6 -97 11 -88 20 11 6 63 -14 136 -44 161 -9 7 -14 9 -12 3z"/>
    <path d="M1678 1683 c-9 -10 -19 -32 -22 -49 -7 -30 -5 -32 86 -84 104 -58 230 -154 298 -225 25 -26 58 -56 74 -68 l29 -21 -29 52 c-84 151 -163 229 -336 329 -76 44 -95 60 -86 70 16 20 3 16 -14 -4z"/>
    <path d="M3622 1555 c0 -96 -27 -184 -77 -260 -33 -49 -152 -170 -225 -228 -45 -36 -21 -25 54 26 116 78 222 207 261 317 18 51 18 142 0 190 -12 34 -13 32 -13 -45z"/>
    <path d="M3430 1530 c5 -19 11 -46 13 -60 3 -16 5 -11 6 16 0 22 -6 49 -14 60 -13 17 -13 16 -5 -16z"/>
    <path d="M1422 1510 c0 -14 2 -19 5 -12 2 6 2 18 0 25 -3 6 -5 1 -5 -13z"/>
    <path d="M3486 1441 l-30 -36 34 32 c19 18 32 34 29 36 -2 2 -17 -12 -33 -32z"/>
    <path d="M3355 1358 c-63 -85 -70 -91 -75 -68 -5 22 -11 16 -61 -60 -31 -47 -108 -142 -172 -213 -64 -70 -121 -137 -128 -148 -6 -12 49 33 123 100 180 165 339 354 369 441 6 17 16 27 22 23 6 -3 7 -1 3 5 -4 7 -8 12 -9 12 -1 0 -34 -42 -72 -92z"/>
    <path d="M1940 1303 c0 -12 20 -61 44 -110 45 -89 110 -172 182 -235 38 -33 39 -33 21 -5 -10 16 -16 31 -14 34 3 2 29 -9 59 -26 30 -17 58 -31 62 -31 4 0 -19 22 -51 48 -80 67 -200 197 -248 268 -53 79 -55 81 -55 57z"/>
    <path d="M2738 831 c-24 -22 -55 -60 -69 -85 -26 -50 -35 -56 -44 -27 -7 22 -122 141 -137 141 -5 0 19 -36 54 -81 35 -44 69 -88 76 -97 7 -10 15 -12 20 -6 7 7 112 140 145 182 18 23 0 12 -45 -27z"/>
  </g>
</svg>